<svg width="24" height="24" viewBox="0 0 24 24" fill="currentColor" xmlns="http://www.w3.org/2000/svg" aria-hidden="true" data-test-id="icon" style="display: inline-block;"><path fill-rule="evenodd" clip-rule="evenodd" d="M7.334 6.596A4 4 0 0 1 11.079 4h1.842a4 4 0 0 1 3.745 2.596L17.193 8H21v3a3 3 0 0 1-3 3h-4v-1a1 1 0 0 0-1-1h-2a1 1 0 0 0-1 1v1H6a3 3 0 0 1-3-3V8h3.807l.527-1.404ZM8.943 8h6.114l-.263-.702A2 2 0 0 0 12.92 6h-1.842a2 2 0 0 0-1.873 1.298L8.943 8Z"></path><path d="M20 16v4H4v-4h16Z"></path></svg>