<svg width="24" height="24" viewBox="0 0 24 24" fill="currentColor" xmlns="http://www.w3.org/2000/svg" aria-hidden="true" data-test-id="icon" style="display: inline-block;"><path fill-rule="evenodd" clip-rule="evenodd" d="M12 21a9 9 0 1 0 0-18 9 9 0 0 0 0 18Zm0-16c-.025 0-.17.01-.42.292-.248.28-.518.744-.765 1.402-.195.52-.363 1.128-.496 1.806h3.362c-.133-.678-.301-1.286-.496-1.806-.247-.658-.517-1.121-.766-1.402C12.17 5.01 12.025 5 12 5Zm-3.058.992A13.93 13.93 0 0 0 8.286 8.5h-2.35a7.03 7.03 0 0 1 3.149-2.866c-.05.117-.097.237-.143.358ZM8.05 10.5H5.161a7.026 7.026 0 0 0 0 3h2.89a22.209 22.209 0 0 1 0-3Zm.236 5h-2.35a7.027 7.027 0 0 0 3.148 2.866 10.953 10.953 0 0 1-.42-1.199 15.35 15.35 0 0 1-.378-1.667Zm2.033 0h3.362c-.133.678-.301 1.286-.496 1.806-.247.658-.517 1.121-.766 1.402-.25.282-.394.292-.419.292-.03 0-.225-.019-.543-.444-.307-.41-.616-1.064-.871-1.946-.1-.344-.19-.716-.267-1.11Zm3.626-2h-3.89a20.15 20.15 0 0 1 0-3h3.89a20.127 20.127 0 0 1 0 3Zm1.769 2c-.16.927-.381 1.775-.656 2.508-.046.121-.093.24-.143.358a7.03 7.03 0 0 0 3.149-2.866h-2.35Zm3.125-2h-2.89a22.163 22.163 0 0 0 0-3h2.89a7.026 7.026 0 0 1 0 3Zm-3.924-7.866A7.03 7.03 0 0 1 18.064 8.5h-2.35a13.925 13.925 0 0 0-.656-2.508 9.56 9.56 0 0 0-.143-.358Z"></path></svg>