<svg width="24" height="24" viewBox="0 0 24 24" fill="currentColor" xmlns="http://www.w3.org/2000/svg" aria-hidden="true" data-test-id="icon" style="display: inline-block;"><path fill-rule="evenodd" clip-rule="evenodd" d="M12 21a9 9 0 1 0-7.586-4.155L3 20l1 1 3.155-1.414A8.958 8.958 0 0 0 12 21Zm1-5a1 1 0 1 1-2 0 1 1 0 0 1 2 0Zm1.14-8.645c.668.454 1.11 1.189 1.11 2.145 0 .767-.355 1.3-.78 1.682-.272.245-.634.472-.92.651-.097.061-.186.117-.259.166-.35.233-.545.419-.641.628-.072.155-.129.412-.015.873h-1.528c-.084-.56-.024-1.058.18-1.502.28-.604.772-.98 1.172-1.247.158-.105.295-.191.418-.268.236-.148.42-.262.59-.416.2-.18.283-.335.283-.567 0-.443-.183-.72-.453-.905-.298-.202-.743-.312-1.237-.272-1.02.081-1.81.71-1.81 1.677h-1.5c0-2.033 1.71-3.054 3.19-3.172.756-.06 1.56.092 2.2.527Z"></path></svg>