<svg xmlns="http://www.w3.org/2000/svg" viewBox="0 0 130 130" fill="none" class="s__KFY9ulj0FJrgGidC4YBv"><linearGradient id="money_with_wings_svg__a" x1="69.269" x2="125.937" y1="99.592" y2="99.592" gradientUnits="userSpaceOnUse"><stop offset="0" stop-color="#ecf1f5"></stop><stop offset="0.413" stop-color="#e9eef3"></stop><stop offset="0.72" stop-color="#e0e6eb"></stop><stop offset="0.993" stop-color="#d0d8dd"></stop><stop offset="1" stop-color="#cfd8dd"></stop></linearGradient><linearGradient id="money_with_wings_svg__b" x1="4.479" x2="56.335" y1="32.399" y2="32.399" gradientUnits="userSpaceOnUse"><stop offset="0" stop-color="#cfd8dd"></stop><stop offset="0.007" stop-color="#d0d8dd"></stop><stop offset="0.28" stop-color="#e0e6eb"></stop><stop offset="0.587" stop-color="#e9eef3"></stop><stop offset="1" stop-color="#ecf1f5"></stop></linearGradient><path fill="#529320" d="M114.638 45.634C103.153 35.143 35.078 62.538 7.879 78.967c-.737 3.457-1.48 6.867-2.303 10.2 11.88 10.852 24.836 23.959 36.71 34.812 41.653-23.461 73.733-64.632 73.733-64.632-.569-4.645-.691-8.984-1.381-13.713z"></path><path fill="#447a1b" d="M42.46 120.868C28.01 107.252 6.081 87.09 6.081 87.09s25.494 24.503 36.3 35.167c45.262-26.518 73.216-65.62 73.216-65.62s-34.697 43.93-73.139 64.231z"></path><path fill="#447a1b" d="M42.63 117.772C27.416 103.484 6.776 84.709 6.776 84.709s20.335 19.667 35.779 34.424c45.675-26.374 72.662-65.66 72.662-65.66s-30.14 41.005-72.587 64.299z"></path><path fill="#447a1b" d="M42.843 113.929A50575.6 50575.6 0 017.538 81.8s20.116 19.228 35.224 33.614c45.232-25.316 72.12-65.74 72.12-65.74s-29.025 41.03-72.039 64.255z"></path><path fill="#92c932" d="M43.002 111.036a96067.36 96067.36 0 01-35.123-32.07c29.086-16.434 53.633-38.849 71.632-65.401a67160.1 67160.1 0 0135.127 32.07c-18.001 26.557-42.549 48.965-71.636 65.4z"></path><path fill="#529320" d="M40.225 103.695a58758.75 58758.75 0 01-23.221-21.204c.473-.278.948-.56 1.421-.84 1.567-.923 1.778-2.66.496-3.826-.382-.357-.774-.71-1.156-1.064 23.4-14.394 43.559-32.799 59.327-54.17.384.354.774.707 1.158 1.059 1.282 1.168 3.177.973 4.192-.455.305-.433.618-.872.92-1.304 7.742 7.068 15.485 14.14 23.226 21.204-.305.433-.616.865-.922 1.302-1.016 1.428-.829 3.526.455 4.698.386.358.774.713 1.16 1.059-15.763 21.37-35.927 39.78-59.33 54.181-.387-.357-.773-.713-1.157-1.07-1.278-1.162-3.583-1.337-5.141-.409l-1.428.839zM22.019 82.788c6.289 5.74 12.58 11.488 18.868 17.229 2.405-.809 5.229-.62 7.368.55C69.67 86.982 88.28 69.983 103.169 50.42c-1.281-1.948-1.495-4.528-.607-6.722A80718.463 80718.463 0 0183.69 26.465c-1.735 1.428-4.087 1.658-6.066.63-14.889 19.559-33.5 36.558-54.923 50.147 1.126 1.808.876 3.96-.682 5.546z"></path><path fill="#529320" d="M66.456 54.322c3.122 0 5.883 1.074 8.209 3.201 3.443 3.144 4.495 6.786 3.038 10.536-1.988 5.127-7.999 8.997-13.98 8.997-3.435 0-6.66-1.286-9.324-3.718-3.027-2.762-3.868-5.951-2.503-9.47 2.074-5.352 8.473-9.546 14.56-9.546zm0-3.047c-12.537.002-24.88 14.473-14.11 24.312 3.485 3.18 7.487 4.515 11.378 4.515 12.791 0 24.442-14.377 12.996-24.828-3.08-2.815-6.68-4-10.264-4z"></path><path fill="#7ab51d" d="M44.196 94.731c-3.492-3.187 2.655-8.31 6.144-5.12 3.764 3.436-2.38 8.555-6.144 5.12zM29.79 81.465c-3.493-3.189 2.653-8.312 6.14-5.12 3.763 3.434-2.378 8.555-6.14 5.12zm62.33-28.906c-4.394-1.751-.456-8.71 3.936-6.961 4.737 1.887.796 8.848-3.937 6.96zM77.758 38.89c-4.475-1.527-.895-8.675 3.58-7.152 4.824 1.638 1.245 8.79-3.58 7.152z"></path><path fill="#ecf1f5" d="M43.258 54.139s15.417 18.017 35.067 32.128c5.267-4.087 9.153-8.328 9.153-8.328-13.2-16.01-35.257-31.98-35.257-31.98-4.18 3.638-8.963 8.18-8.963 8.18z"></path><path fill="#ffe12c" d="M78.325 86.27L43.257 54.138l-2.16 1.834L76.07 88.171zm9.151-8.329l2.088-2.088-35.171-32.027-2.174 2.135z"></path><g fill-rule="evenodd" clip-rule="evenodd"><path fill="url(#money_with_wings_svg__a)" d="M125.937 124.627c-13.172 3.194-19.152-3.223-19.152-3.223-10.784 5.117-19.112-5.036-19.112-5.036-22.39-4.739-8.099-27.677-18.405-39.339 38.224-16.11 34.295 29.961 56.669 47.598z"></path><path fill="#b3c2c6" d="M92.294 102.657c10.369 18.903 23.593 24.087 33.644 21.97-17.707 6.009-27.808-9.947-33.644-21.97z"></path><path fill="#b3c2c6" d="M81.138 96.3c3.752 22.033 14.814 28.173 25.084 25.36-13.4 6.67-25.098-8.808-25.084-25.36z"></path><path fill="#b3c2c6" d="M73.623 90.79c.077 15.101 3.351 22.107 13.901 25.55-14.515-1.84-14.5-13.083-13.901-25.55z"></path><path fill="url(#money_with_wings_svg__b)" d="M52.975 60.734c-11.663-10.306-34.608 3.971-39.343-18.409 0 0-10.15-8.328-5.038-19.108 0 0-6.416-5.972-3.223-19.154 17.643 22.382 63.71 18.453 47.604 56.671z"></path><path fill="#b3c2c6" d="M27.345 37.706C8.444 27.341 3.258 14.12 5.37 4.062c-6.009 17.711 9.955 27.806 21.974 33.644z"></path><path fill="#b3c2c6" d="M33.694 48.862C11.672 45.108 5.53 34.05 8.336 23.776c-6.666 13.404 8.81 25.1 25.358 25.086z"></path><path fill="#b3c2c6" d="M39.213 56.383c-15.102-.08-22.112-3.36-25.549-13.908 1.837 14.514 13.082 14.504 25.55 13.908z"></path></g></svg>