<svg width="24" height="24" viewBox="0 0 24 24" fill="currentColor" xmlns="http://www.w3.org/2000/svg" aria-hidden="true" data-test-id="icon" style="display: inline-block;"><path d="M8.102 5.224C8 5.605 8 6.07 8 7v2c0 .93 0 1.395.102 1.777a3 3 0 0 0 2.121 2.12C10.605 13 11.07 13 12 13c.93 0 1.395 0 1.777-.102a3 3 0 0 0 2.12-2.121C16 10.395 16 9.93 16 9V7c0-.93 0-1.395-.102-1.776a3 3 0 0 0-2.121-2.122C13.395 3 12.93 3 12 3c-.93 0-1.395 0-1.777.102a3 3 0 0 0-2.12 2.122ZM11 15a6 6 0 0 0-6 6h14a6 6 0 0 0-6-6h-2Z"></path></svg>